<svg xmlns="http://www.w3.org/2000/svg" viewBox="0 0 1280 1280"><title>icon-phone-white</title><path d="M307.82,274.92,460.4,427.5a20,20,0,0,1,0,28.32L376.78,539a20.06,20.06,0,0,0-5.2,19.39c20.95,78.61,64,155.27,128.35,219.65S640.67,885.31,719.13,906.3a20.06,20.06,0,0,0,19.38-5.17l83.61-83.63a20,20,0,0,1,28.29,0l153.14,153.14a20,20,0,0,1,.06,28.23l-71.77,72.33a20.14,20.14,0,0,1-10.63,5.6c-179,33.28-383.87-29.31-536.78-182.23S169,541.12,202.1,362.32a20.17,20.17,0,0,1,5.09-10.13l71.89-76.79A20,20,0,0,1,307.82,274.92Z" style="fill:none;stroke:#fff;stroke-miterlimit:10;stroke-width:40px"/><path d="M706,189c212.08,0,384,171.92,384,384" style="fill:none;stroke:#fff;stroke-miterlimit:10;stroke-width:40px"/><path d="M706,381.19c105.94,0,191.81,85.88,191.81,191.81" style="fill:none;stroke:#fff;stroke-miterlimit:10;stroke-width:40px"/></svg>